<svg id="Layer_1" data-name="Layer 1" xmlns="http://www.w3.org/2000/svg" width="157.54" height="245.14" viewBox="0 0 157.54 245.14"><defs><style>.cls-1{fill:#d30515;opacity:0.91;}.cls-2{fill:#e98800;opacity:0.8;}.cls-3{fill:#f4d914;opacity:0.61;}</style></defs><path class="cls-1" d="M150.66,29.68c13.34,24,74,88.47,74,130.43,0,50.65-35.26,91.71-78.77,91.71s-78.77-41.06-78.77-91.71c0-29.41,26.22-61.41,25.3-57.15-2.46,11.4,1.59,31.22,8,43.75,11.17,21.84,21.78,37.94,39.86,29.07,28.3-13.89,9.13-70.13,1.1-88.94-17.73-41.53-2.83-74.7,0-80a.35.35,0,0,1,.64,0C143.38,10.45,142,14,150.66,29.68Z" transform="translate(-67.13 -6.68)"/><path class="cls-2" d="M147.72,53.39c10.43,18.78,57.87,69.17,57.87,102,0,39.6-27.58,71.7-61.59,71.7S82.41,195,82.41,155.37c0-23,26.77-44.06,26.05-40.73-1.92,8.91-5,20.45,0,30.25,8.74,17.08,23,39.31,35.55,28.4,18.61-16.15.41-58.28-5.65-73.08-21-51.32-.08-60.53,2.12-64.65a.27.27,0,0,1,.49,0C142,38.35,140.92,41.13,147.72,53.39Z" transform="translate(-67.13 -6.68)"/><path class="cls-3" d="M147,75.18c8.34,15,46.24,55.27,46.24,81.48,0,31.65-22,57.3-49.21,57.3s-55.22-26.23-49.21-57.3c4.63-23.95,23.68-30.35,23.68-30.35s-5.07,58.9,24.29,47.43c13.52-5.28-.79-44.71-5.81-56.46-11.07-25.94,2.47-53.06,4.23-56.35a.21.21,0,0,1,.39,0C142.43,63.16,141.54,65.38,147,75.18Z" transform="translate(-67.13 -6.68)"/></svg>